<svg width="518" height="324" viewBox="0 0 518 324" fill="none" xmlns="http://www.w3.org/2000/svg">
<path fill-rule="evenodd" clip-rule="evenodd" d="M370.437 234.003C340.219 256.277 296.42 268.16 258.711 268.16C205.834 268.16 158.232 248.603 122.219 216.076C119.39 213.519 121.925 210.032 125.32 212.025C164.185 234.637 212.24 248.241 261.879 248.241C295.356 248.241 332.184 241.314 366.047 226.941C371.162 224.769 375.44 230.291 370.437 234.003ZM383 219.63C379.152 214.696 357.468 217.298 347.735 218.453C344.769 218.815 344.317 216.235 346.988 214.378C364.259 202.223 392.598 205.732 395.902 209.807C399.208 213.903 395.043 242.31 378.813 255.869C376.323 257.952 373.946 256.842 375.056 254.081C378.699 244.981 386.871 224.587 383 219.63" fill="#FF9900"/>
<path d="M93.5596 147.605L83.4396 119.947C82.9412 118.721 82.4237 117.264 81.8871 115.577C81.3504 113.891 80.8137 112.07 80.2771 110.115C79.7787 112.07 79.2612 113.91 78.7246 115.635C78.1879 117.322 77.6704 118.797 77.1721 120.062L67.1096 147.605H93.5596ZM120.872 179H108.912C107.57 179 106.478 178.674 105.635 178.022C104.791 177.332 104.159 176.489 103.737 175.492L97.5271 158.53H63.0846L56.8746 175.492C56.5679 176.374 55.9737 177.179 55.0921 177.907C54.2104 178.636 53.1179 179 51.8146 179H39.7396L72.4571 95.855H88.2121L120.872 179ZM127.123 179V120.005H135.806C137.646 120.005 138.853 120.867 139.428 122.592L140.348 126.962C141.383 125.812 142.457 124.758 143.568 123.8C144.718 122.842 145.926 122.017 147.191 121.327C148.494 120.637 149.874 120.101 151.331 119.717C152.826 119.296 154.455 119.085 156.218 119.085C159.937 119.085 162.984 120.101 165.361 122.132C167.776 124.126 169.578 126.79 170.766 130.125C171.686 128.17 172.836 126.502 174.216 125.122C175.596 123.704 177.11 122.554 178.758 121.672C180.407 120.791 182.151 120.139 183.991 119.717C185.869 119.296 187.748 119.085 189.626 119.085C192.884 119.085 195.778 119.583 198.308 120.58C200.838 121.577 202.966 123.033 204.691 124.95C206.416 126.867 207.719 129.205 208.601 131.965C209.521 134.725 209.981 137.887 209.981 141.452V179H195.778V141.452C195.778 137.696 194.954 134.878 193.306 133C191.658 131.083 189.243 130.125 186.061 130.125C184.604 130.125 183.243 130.374 181.978 130.872C180.752 131.371 179.659 132.099 178.701 133.057C177.781 133.977 177.053 135.147 176.516 136.565C175.979 137.983 175.711 139.612 175.711 141.452V179H161.451V141.452C161.451 137.504 160.646 134.629 159.036 132.827C157.464 131.026 155.145 130.125 152.078 130.125C150.008 130.125 148.073 130.642 146.271 131.677C144.508 132.674 142.859 134.054 141.326 135.817V179H127.123ZM254.646 153.815C250.544 154.007 247.094 154.371 244.296 154.907C241.497 155.406 239.255 156.057 237.568 156.862C235.882 157.667 234.674 158.607 233.946 159.68C233.217 160.753 232.853 161.922 232.853 163.187C232.853 165.679 233.582 167.462 235.038 168.535C236.533 169.608 238.469 170.145 240.846 170.145C243.759 170.145 246.27 169.627 248.378 168.592C250.525 167.519 252.614 165.909 254.646 163.762V153.815ZM222.101 128.227C228.886 122.017 237.051 118.912 246.596 118.912C250.046 118.912 253.132 119.487 255.853 120.637C258.575 121.749 260.875 123.321 262.753 125.352C264.632 127.346 266.05 129.742 267.008 132.54C268.005 135.338 268.503 138.405 268.503 141.74V179H262.063C260.722 179 259.687 178.808 258.958 178.425C258.23 178.003 257.655 177.179 257.233 175.952L255.968 171.697C254.473 173.039 253.017 174.227 251.598 175.262C250.18 176.259 248.704 177.102 247.171 177.792C245.637 178.482 243.989 179 242.226 179.345C240.501 179.728 238.584 179.92 236.476 179.92C233.984 179.92 231.684 179.594 229.576 178.942C227.467 178.252 225.647 177.237 224.113 175.895C222.58 174.553 221.392 172.886 220.548 170.892C219.705 168.899 219.283 166.58 219.283 163.935C219.283 162.44 219.532 160.964 220.031 159.507C220.529 158.012 221.334 156.594 222.446 155.252C223.596 153.911 225.072 152.646 226.873 151.457C228.675 150.269 230.879 149.234 233.486 148.352C236.131 147.471 239.197 146.762 242.686 146.225C246.174 145.65 250.161 145.305 254.646 145.19V141.74C254.646 137.792 253.802 134.878 252.116 133C250.429 131.083 247.995 130.125 244.813 130.125C242.513 130.125 240.597 130.393 239.063 130.93C237.568 131.467 236.246 132.08 235.096 132.77C233.946 133.422 232.892 134.016 231.933 134.552C231.013 135.089 229.978 135.357 228.828 135.357C227.832 135.357 226.988 135.108 226.298 134.61C225.608 134.073 225.052 133.46 224.631 132.77L222.101 128.227ZM324.257 125.87C324.257 126.867 324.084 127.844 323.739 128.802C323.394 129.761 322.934 130.547 322.359 131.16L294.357 168.075H323.394V179H277.854V173.077C277.854 172.426 278.008 171.659 278.314 170.777C278.621 169.857 279.081 168.995 279.694 168.19L307.984 130.872H279.522V120.005H324.257V125.87ZM349.495 120.005V179H335.235V120.005H349.495ZM351.45 102.812C351.45 104.039 351.201 105.189 350.702 106.262C350.204 107.336 349.533 108.275 348.69 109.08C347.885 109.885 346.926 110.537 345.815 111.035C344.703 111.495 343.515 111.725 342.25 111.725C341.023 111.725 339.854 111.495 338.742 111.035C337.669 110.537 336.73 109.885 335.925 109.08C335.12 108.275 334.468 107.336 333.97 106.262C333.51 105.189 333.28 104.039 333.28 102.812C333.28 101.547 333.51 100.359 333.97 99.2475C334.468 98.1358 335.12 97.1775 335.925 96.3725C336.73 95.5675 337.669 94.935 338.742 94.475C339.854 93.9767 341.023 93.7275 342.25 93.7275C343.515 93.7275 344.703 93.9767 345.815 94.475C346.926 94.935 347.885 95.5675 348.69 96.3725C349.533 97.1775 350.204 98.1358 350.702 99.2475C351.201 100.359 351.45 101.547 351.45 102.812ZM377.256 127.25C378.445 126.062 379.691 124.969 380.994 123.972C382.336 122.937 383.735 122.075 385.191 121.385C386.686 120.657 388.277 120.101 389.964 119.717C391.651 119.296 393.491 119.085 395.484 119.085C398.704 119.085 401.56 119.641 404.051 120.752C406.543 121.826 408.613 123.359 410.261 125.352C411.948 127.307 413.213 129.665 414.056 132.425C414.938 135.147 415.379 138.156 415.379 141.452V179H401.176V141.452C401.176 137.849 400.352 135.07 398.704 133.115C397.056 131.122 394.545 130.125 391.171 130.125C388.718 130.125 386.418 130.681 384.271 131.792C382.125 132.904 380.093 134.418 378.176 136.335V179H363.974V120.005H372.656C374.496 120.005 375.704 120.867 376.279 122.592L377.256 127.25ZM450.449 148.065C452.212 148.065 453.745 147.835 455.049 147.375C456.352 146.877 457.425 146.206 458.269 145.362C459.15 144.519 459.802 143.503 460.224 142.315C460.684 141.127 460.914 139.823 460.914 138.405C460.914 135.492 460.032 133.192 458.269 131.505C456.544 129.78 453.937 128.917 450.449 128.917C446.96 128.917 444.334 129.78 442.571 131.505C440.846 133.192 439.984 135.492 439.984 138.405C439.984 139.785 440.194 141.069 440.616 142.257C441.076 143.446 441.728 144.481 442.571 145.362C443.453 146.206 444.545 146.877 445.849 147.375C447.19 147.835 448.724 148.065 450.449 148.065ZM466.491 181.645C466.491 180.495 466.146 179.556 465.456 178.827C464.766 178.099 463.827 177.543 462.639 177.16C461.45 176.738 460.051 176.432 458.441 176.24C456.869 176.048 455.183 175.914 453.381 175.837C451.618 175.722 449.778 175.627 447.861 175.55C445.983 175.473 444.143 175.32 442.341 175.09C440.769 175.972 439.485 177.007 438.489 178.195C437.53 179.383 437.051 180.763 437.051 182.335C437.051 183.37 437.3 184.328 437.799 185.21C438.335 186.13 439.159 186.916 440.271 187.568C441.421 188.219 442.897 188.718 444.699 189.063C446.5 189.446 448.704 189.638 451.311 189.638C453.956 189.638 456.237 189.427 458.154 189.005C460.07 188.622 461.642 188.066 462.869 187.338C464.134 186.648 465.054 185.804 465.629 184.808C466.204 183.849 466.491 182.795 466.491 181.645ZM480.636 122.017V127.307C480.636 128.994 479.62 130.029 477.589 130.412L472.299 131.39C473.104 133.422 473.506 135.645 473.506 138.06C473.506 140.973 472.912 143.618 471.724 145.995C470.574 148.333 468.964 150.327 466.894 151.975C464.824 153.623 462.37 154.907 459.534 155.827C456.735 156.709 453.707 157.15 450.449 157.15C449.299 157.15 448.187 157.092 447.114 156.977C446.04 156.862 444.986 156.709 443.951 156.517C442.111 157.629 441.191 158.875 441.191 160.255C441.191 161.443 441.728 162.325 442.801 162.9C443.913 163.437 445.369 163.82 447.171 164.05C448.973 164.28 451.024 164.433 453.324 164.51C455.624 164.548 457.981 164.663 460.396 164.855C462.811 165.047 465.169 165.392 467.469 165.89C469.769 166.35 471.819 167.097 473.621 168.132C475.423 169.167 476.86 170.586 477.934 172.387C479.045 174.151 479.601 176.432 479.601 179.23C479.601 181.837 478.949 184.367 477.646 186.82C476.381 189.273 474.522 191.458 472.069 193.375C469.654 195.292 466.664 196.825 463.099 197.975C459.572 199.163 455.547 199.758 451.024 199.758C446.577 199.758 442.705 199.317 439.409 198.435C436.112 197.592 433.371 196.442 431.186 194.985C429.001 193.567 427.372 191.918 426.299 190.04C425.225 188.162 424.689 186.207 424.689 184.175C424.689 181.415 425.513 179.115 427.161 177.275C428.848 175.397 431.148 173.902 434.061 172.79C432.489 171.985 431.244 170.912 430.324 169.57C429.404 168.228 428.944 166.465 428.944 164.28C428.944 163.398 429.097 162.497 429.404 161.577C429.749 160.619 430.228 159.68 430.841 158.76C431.493 157.84 432.298 156.977 433.256 156.172C434.214 155.329 435.345 154.582 436.649 153.93C433.659 152.32 431.301 150.173 429.576 147.49C427.889 144.807 427.046 141.663 427.046 138.06C427.046 135.147 427.621 132.521 428.771 130.182C429.959 127.806 431.589 125.793 433.659 124.145C435.767 122.458 438.239 121.174 441.076 120.292C443.951 119.411 447.075 118.97 450.449 118.97C452.979 118.97 455.355 119.238 457.579 119.775C459.802 120.273 461.834 121.021 463.674 122.017H480.636Z" fill="white"/>
</svg>
