<svg width="349" height="291" viewBox="0 0 349 291" fill="none" xmlns="http://www.w3.org/2000/svg">
<path d="M281.928 206.542H121.972C115.985 206.542 110.702 202.633 108.952 196.907L57.1797 27.6489H11.6706C4.15119 27.6489 -1.94444 21.5533 -1.94444 14.0339C-1.94444 6.51453 4.15119 0.4189 11.6706 0.4189H67.2548C73.2415 0.4189 78.5241 4.32835 80.2746 10.0505L132.047 179.312H272.88L314.056 81.3192H307.5C299.981 81.3192 294.477 75.0194 294.477 67.5C294.477 59.9806 299.981 54.0892 307.5 54.0892H334.541C339.1 54.0892 343.359 56.3727 345.88 60.1693C348.401 63.9659 348.86 68.774 347.094 72.9791L294.477 198.202C292.353 203.255 287.409 206.542 281.928 206.542Z" fill="white"/>
<path d="M110.399 290.162C123.633 290.162 134.361 279.433 134.361 266.199C134.361 252.965 123.633 242.237 110.399 242.237C97.1647 242.237 86.4364 252.965 86.4364 266.199C86.4364 279.433 97.1647 290.162 110.399 290.162Z" fill="white"/>
<path d="M288.211 290.162C301.445 290.162 312.173 279.433 312.173 266.199C312.173 252.965 301.445 242.237 288.211 242.237C274.977 242.237 264.248 252.965 264.248 266.199C264.248 279.433 274.977 290.162 288.211 290.162Z" fill="white"/>
</svg>
