<svg width="465" height="189" viewBox="0 0 465 189" fill="none" xmlns="http://www.w3.org/2000/svg">
<path fill-rule="evenodd" clip-rule="evenodd" d="M344.437 150.003C314.219 172.277 270.42 184.16 232.711 184.16C179.834 184.16 132.232 164.603 96.2195 132.076C93.3905 129.519 95.9255 126.032 99.3205 128.025C138.185 150.637 186.24 164.241 235.879 164.241C269.356 164.241 306.184 157.314 340.047 142.941C345.162 140.769 349.44 146.291 344.437 150.003ZM357 135.63C353.152 130.696 331.468 133.298 321.735 134.453C318.769 134.815 318.317 132.235 320.988 130.378C338.259 118.223 366.598 121.732 369.902 125.807C373.208 129.903 369.043 158.31 352.813 171.869C350.323 173.952 347.946 172.842 349.056 170.081C352.699 160.981 360.871 140.587 357 135.63" fill="#FF9900"/>
<path d="M59.6555 81.9725L51.893 59.03C51.318 57.5733 50.7046 55.8675 50.053 53.9125C49.4013 51.9192 48.7496 49.7725 48.098 47.4725C47.523 49.8108 46.9096 51.9767 46.258 53.97C45.6063 55.9633 44.993 57.6883 44.418 59.145L36.713 81.9725H59.6555ZM90.533 114H75.468C73.7813 114 72.4205 113.617 71.3854 112.85C70.3505 112.045 69.5646 111.029 69.0279 109.802L64.083 95.1975H32.228L27.283 109.802C26.8613 110.876 26.0946 111.853 24.983 112.735C23.9096 113.578 22.5679 114 20.9579 114H5.77795L38.208 30.2225H58.103L90.533 114ZM95.0683 114V54.3725H106.108C108.332 54.3725 109.788 55.3692 110.478 57.3625L111.456 60.5825C112.452 59.5475 113.487 58.6083 114.561 57.765C115.634 56.8833 116.784 56.1358 118.011 55.5225C119.276 54.8708 120.617 54.3725 122.036 54.0275C123.492 53.6442 125.083 53.4525 126.808 53.4525C130.412 53.4525 133.382 54.3917 135.721 56.27C138.097 58.11 139.899 60.5825 141.126 63.6875C142.122 61.8475 143.33 60.2758 144.748 58.9725C146.205 57.6692 147.757 56.615 149.406 55.81C151.092 55.005 152.856 54.4108 154.696 54.0275C156.574 53.6442 158.433 53.4525 160.273 53.4525C163.685 53.4525 166.713 53.97 169.358 55.005C172.003 56.0017 174.207 57.4775 175.971 59.4325C177.772 61.3492 179.133 63.7258 180.053 66.5625C180.973 69.3608 181.433 72.5425 181.433 76.1075V114H163.608V76.1075C163.608 69.9358 160.963 66.85 155.673 66.85C153.258 66.85 151.246 67.655 149.636 69.265C148.064 70.8367 147.278 73.1175 147.278 76.1075V114H129.453V76.1075C129.453 72.6958 128.782 70.3 127.441 68.92C126.099 67.54 124.125 66.85 121.518 66.85C119.908 66.85 118.375 67.2142 116.918 67.9425C115.5 68.6708 114.158 69.6483 112.893 70.875V114H95.0683ZM223.648 89.735C220.083 89.8883 217.151 90.195 214.851 90.655C212.551 91.115 210.73 91.69 209.388 92.38C208.046 93.07 207.107 93.8558 206.571 94.7375C206.072 95.6192 205.823 96.5775 205.823 97.6125C205.823 99.6442 206.379 101.082 207.491 101.925C208.602 102.73 210.231 103.132 212.378 103.132C214.678 103.132 216.691 102.73 218.416 101.925C220.141 101.12 221.885 99.8167 223.648 98.015V89.735ZM191.563 62.6525C195.166 59.4708 199.153 57.1133 203.523 55.58C207.931 54.0083 212.646 53.2225 217.668 53.2225C221.271 53.2225 224.511 53.8167 227.386 55.005C230.299 56.155 232.752 57.7842 234.746 59.8925C236.777 61.9625 238.33 64.435 239.403 67.31C240.476 70.185 241.013 73.3283 241.013 76.74V114H232.848C231.161 114 229.877 113.77 228.996 113.31C228.152 112.85 227.443 111.892 226.868 110.435L225.603 107.157C224.108 108.422 222.671 109.534 221.291 110.492C219.911 111.451 218.473 112.275 216.978 112.965C215.521 113.617 213.95 114.096 212.263 114.403C210.615 114.748 208.775 114.92 206.743 114.92C204.021 114.92 201.549 114.575 199.326 113.885C197.102 113.157 195.205 112.102 193.633 110.722C192.1 109.342 190.911 107.637 190.068 105.605C189.225 103.535 188.803 101.158 188.803 98.475C188.803 96.3283 189.34 94.1625 190.413 91.9775C191.486 89.7542 193.346 87.7417 195.991 85.94C198.636 84.1 202.201 82.5667 206.686 81.34C211.171 80.1133 216.825 79.4233 223.648 79.27V76.74C223.648 73.2517 222.92 70.7408 221.463 69.2075C220.045 67.6358 218.013 66.85 215.368 66.85C213.26 66.85 211.535 67.08 210.193 67.54C208.851 68 207.644 68.5175 206.571 69.0925C205.536 69.6675 204.52 70.185 203.523 70.645C202.526 71.105 201.338 71.335 199.958 71.335C198.731 71.335 197.696 71.0283 196.853 70.415C196.01 69.8017 195.32 69.0733 194.783 68.23L191.563 62.6525ZM296.74 61.5025C296.74 62.7292 296.529 63.9175 296.107 65.0675C295.685 66.2175 295.13 67.1567 294.44 67.885L269.542 100.775H296.165V114H249.015V106.755C249.015 106.027 249.206 105.107 249.59 103.995C249.973 102.883 250.548 101.848 251.315 100.89L276.442 67.5975H250.625V54.3725H296.74V61.5025ZM324.204 54.3725V114H306.379V54.3725H324.204ZM326.044 38.0425C326.044 39.4608 325.756 40.8025 325.181 42.0675C324.606 43.2942 323.821 44.3867 322.824 45.345C321.827 46.265 320.658 47.0125 319.316 47.5875C318.013 48.1242 316.614 48.3925 315.119 48.3925C313.662 48.3925 312.301 48.1242 311.036 47.5875C309.771 47.0125 308.641 46.265 307.644 45.345C306.686 44.3867 305.919 43.2942 305.344 42.0675C304.807 40.8025 304.539 39.4608 304.539 38.0425C304.539 36.5858 304.807 35.225 305.344 33.96C305.919 32.695 306.686 31.5833 307.644 30.625C308.641 29.6667 309.771 28.9192 311.036 28.3825C312.301 27.8458 313.662 27.5775 315.119 27.5775C316.614 27.5775 318.013 27.8458 319.316 28.3825C320.658 28.9192 321.827 29.6667 322.824 30.625C323.821 31.5833 324.606 32.695 325.181 33.96C325.756 35.225 326.044 36.5858 326.044 38.0425ZM353.081 60.8125C354.231 59.7392 355.419 58.7425 356.646 57.8225C357.872 56.9025 359.176 56.1358 360.556 55.5225C361.974 54.8708 363.488 54.3725 365.098 54.0275C366.746 53.6442 368.529 53.4525 370.446 53.4525C373.704 53.4525 376.579 54.0275 379.071 55.1775C381.601 56.2892 383.728 57.8608 385.453 59.8925C387.178 61.8858 388.481 64.2817 389.363 67.08C390.245 69.84 390.686 72.8492 390.686 76.1075V114H372.861V76.1075C372.861 73.1942 372.19 70.9325 370.848 69.3225C369.506 67.6742 367.532 66.85 364.926 66.85C362.971 66.85 361.131 67.2717 359.406 68.115C357.719 68.92 356.071 70.0317 354.461 71.45V114H336.636V54.3725H347.676C349.899 54.3725 351.356 55.3692 352.046 57.3625L353.081 60.8125ZM424.934 81.0525C427.886 81.0525 430.013 80.3242 431.317 78.8675C432.658 77.3725 433.329 75.4558 433.329 73.1175C433.329 70.7025 432.658 68.805 431.317 67.425C430.013 66.045 427.886 65.355 424.934 65.355C421.982 65.355 419.836 66.045 418.494 67.425C417.191 68.805 416.539 70.7025 416.539 73.1175C416.539 74.2675 416.692 75.3217 416.999 76.28C417.344 77.2383 417.862 78.0817 418.552 78.81C419.242 79.5 420.104 80.0558 421.139 80.4775C422.212 80.8608 423.477 81.0525 424.934 81.0525ZM438.734 116.185C438.734 114.767 438.102 113.751 436.837 113.137C435.572 112.486 433.923 112.026 431.892 111.757C429.86 111.489 427.579 111.336 425.049 111.297C422.557 111.221 420.066 111.067 417.574 110.837C416.462 111.604 415.542 112.467 414.814 113.425C414.124 114.345 413.779 115.399 413.779 116.588C413.779 117.431 413.952 118.198 414.297 118.888C414.68 119.578 415.332 120.172 416.252 120.67C417.172 121.168 418.398 121.552 419.932 121.82C421.503 122.127 423.477 122.28 425.854 122.28C428.422 122.28 430.531 122.127 432.179 121.82C433.827 121.513 435.131 121.092 436.089 120.555C437.086 120.018 437.776 119.367 438.159 118.6C438.542 117.872 438.734 117.067 438.734 116.185ZM456.329 56.2125V62.71C456.329 63.7067 456.042 64.4925 455.467 65.0675C454.93 65.6425 453.991 66.0833 452.649 66.39L448.337 67.3675C448.567 68.2108 448.739 69.0733 448.854 69.955C449.007 70.8367 449.084 71.7567 449.084 72.715C449.084 75.705 448.452 78.3883 447.187 80.765C445.96 83.1417 444.254 85.1733 442.069 86.86C439.922 88.5083 437.373 89.7925 434.422 90.7125C431.47 91.5942 428.307 92.035 424.934 92.035C424.014 92.035 423.113 92.0158 422.232 91.9775C421.35 91.9008 420.487 91.7858 419.644 91.6325C418.341 92.4375 417.689 93.3383 417.689 94.335C417.689 95.3317 418.226 96.06 419.299 96.52C420.372 96.9417 421.791 97.2483 423.554 97.44C425.317 97.5933 427.311 97.7083 429.534 97.785C431.796 97.8233 434.096 97.9575 436.434 98.1875C438.772 98.3792 441.053 98.7242 443.277 99.2225C445.538 99.7208 447.551 100.526 449.314 101.637C451.077 102.749 452.496 104.244 453.569 106.122C454.642 107.962 455.179 110.32 455.179 113.195C455.179 115.878 454.527 118.504 453.224 121.073C451.921 123.641 450.004 125.922 447.474 127.915C444.944 129.908 441.839 131.499 438.159 132.688C434.479 133.914 430.262 134.528 425.509 134.528C420.832 134.528 416.788 134.087 413.377 133.205C410.003 132.323 407.186 131.154 404.924 129.698C402.701 128.279 401.052 126.631 399.979 124.753C398.906 122.874 398.369 120.919 398.369 118.888C398.369 116.243 399.136 114.038 400.669 112.275C402.202 110.512 404.349 109.093 407.109 108.02C405.652 107.138 404.502 106.007 403.659 104.627C402.816 103.247 402.394 101.465 402.394 99.28C402.394 98.3983 402.547 97.4783 402.854 96.52C403.161 95.5233 403.64 94.565 404.292 93.645C404.982 92.6867 405.825 91.7858 406.822 90.9425C407.818 90.0992 409.007 89.3517 410.387 88.7C407.282 87.0517 404.828 84.8858 403.027 82.2025C401.225 79.4808 400.324 76.3183 400.324 72.715C400.324 69.725 400.957 67.0417 402.222 64.665C403.487 62.25 405.212 60.2183 407.397 58.57C409.62 56.8833 412.227 55.5992 415.217 54.7175C418.207 53.7975 421.446 53.3375 424.934 53.3375C429.994 53.3375 434.479 54.2958 438.389 56.2125H456.329Z" fill="white"/>
</svg>
