<svg width="518" height="324" viewBox="0 0 518 324" fill="none" xmlns="http://www.w3.org/2000/svg">
<path fill-rule="evenodd" clip-rule="evenodd" d="M383.437 215.003C353.219 237.277 309.42 249.16 271.711 249.16C218.834 249.16 171.232 229.603 135.219 197.076C132.39 194.519 134.925 191.032 138.32 193.025C177.185 215.637 225.24 229.241 274.879 229.241C308.356 229.241 345.184 222.314 379.047 207.941C384.162 205.769 388.44 211.291 383.437 215.003ZM396 200.63C392.152 195.696 370.468 198.298 360.735 199.453C357.769 199.815 357.317 197.235 359.988 195.378C377.259 183.223 405.598 186.732 408.902 190.807C412.208 194.903 408.043 223.31 391.813 236.869C389.323 238.952 386.946 237.842 388.056 235.081C391.699 225.981 399.871 205.587 396 200.63" fill="#FF9900"/>
<path d="M98.6555 146.972L90.893 124.03C90.318 122.573 89.7046 120.867 89.053 118.912C88.4013 116.919 87.7496 114.772 87.098 112.472C86.523 114.811 85.9096 116.977 85.258 118.97C84.6063 120.963 83.993 122.688 83.418 124.145L75.713 146.972H98.6555ZM129.533 179H114.468C112.781 179 111.42 178.617 110.385 177.85C109.35 177.045 108.565 176.029 108.028 174.802L103.083 160.197H71.228L66.283 174.802C65.8613 175.876 65.0946 176.853 63.983 177.735C62.9096 178.578 61.5679 179 59.9579 179H44.7779L77.208 95.2225H97.103L129.533 179ZM134.068 179V119.372H145.108C147.332 119.372 148.788 120.369 149.478 122.362L150.456 125.582C151.452 124.547 152.487 123.608 153.561 122.765C154.634 121.883 155.784 121.136 157.011 120.522C158.276 119.871 159.617 119.372 161.036 119.027C162.492 118.644 164.083 118.452 165.808 118.452C169.412 118.452 172.382 119.392 174.721 121.27C177.097 123.11 178.899 125.582 180.126 128.687C181.122 126.847 182.33 125.276 183.748 123.972C185.205 122.669 186.757 121.615 188.406 120.81C190.092 120.005 191.856 119.411 193.696 119.027C195.574 118.644 197.433 118.452 199.273 118.452C202.685 118.452 205.713 118.97 208.358 120.005C211.003 121.002 213.207 122.477 214.971 124.432C216.772 126.349 218.133 128.726 219.053 131.562C219.973 134.361 220.433 137.542 220.433 141.107V179H202.608V141.107C202.608 134.936 199.963 131.85 194.673 131.85C192.258 131.85 190.246 132.655 188.636 134.265C187.064 135.837 186.278 138.117 186.278 141.107V179H168.453V141.107C168.453 137.696 167.782 135.3 166.441 133.92C165.099 132.54 163.125 131.85 160.518 131.85C158.908 131.85 157.375 132.214 155.918 132.942C154.5 133.671 153.158 134.648 151.893 135.875V179H134.068ZM262.648 154.735C259.083 154.888 256.151 155.195 253.851 155.655C251.551 156.115 249.73 156.69 248.388 157.38C247.046 158.07 246.107 158.856 245.571 159.737C245.072 160.619 244.823 161.577 244.823 162.612C244.823 164.644 245.379 166.082 246.491 166.925C247.602 167.73 249.231 168.132 251.378 168.132C253.678 168.132 255.691 167.73 257.416 166.925C259.141 166.12 260.885 164.817 262.648 163.015V154.735ZM230.563 127.652C234.166 124.471 238.153 122.113 242.523 120.58C246.931 119.008 251.646 118.222 256.668 118.222C260.271 118.222 263.511 118.817 266.386 120.005C269.299 121.155 271.752 122.784 273.746 124.892C275.777 126.962 277.33 129.435 278.403 132.31C279.476 135.185 280.013 138.328 280.013 141.74V179H271.848C270.161 179 268.877 178.77 267.996 178.31C267.152 177.85 266.443 176.892 265.868 175.435L264.603 172.157C263.108 173.422 261.671 174.534 260.291 175.492C258.911 176.451 257.473 177.275 255.978 177.965C254.521 178.617 252.95 179.096 251.263 179.403C249.615 179.748 247.775 179.92 245.743 179.92C243.021 179.92 240.549 179.575 238.326 178.885C236.102 178.157 234.205 177.102 232.633 175.722C231.1 174.342 229.911 172.637 229.068 170.605C228.225 168.535 227.803 166.158 227.803 163.475C227.803 161.328 228.34 159.162 229.413 156.977C230.486 154.754 232.346 152.742 234.991 150.94C237.636 149.1 241.201 147.567 245.686 146.34C250.171 145.113 255.825 144.423 262.648 144.27V141.74C262.648 138.252 261.92 135.741 260.463 134.207C259.045 132.636 257.013 131.85 254.368 131.85C252.26 131.85 250.535 132.08 249.193 132.54C247.851 133 246.644 133.517 245.571 134.092C244.536 134.667 243.52 135.185 242.523 135.645C241.526 136.105 240.338 136.335 238.958 136.335C237.731 136.335 236.696 136.028 235.853 135.415C235.01 134.802 234.32 134.073 233.783 133.23L230.563 127.652ZM335.74 126.502C335.74 127.729 335.529 128.917 335.107 130.067C334.685 131.217 334.13 132.157 333.44 132.885L308.542 165.775H335.165V179H288.015V171.755C288.015 171.027 288.206 170.107 288.59 168.995C288.973 167.883 289.548 166.848 290.315 165.89L315.442 132.597H289.625V119.372H335.74V126.502ZM363.204 119.372V179H345.379V119.372H363.204ZM365.044 103.042C365.044 104.461 364.756 105.802 364.181 107.067C363.606 108.294 362.821 109.387 361.824 110.345C360.827 111.265 359.658 112.012 358.316 112.587C357.013 113.124 355.614 113.392 354.119 113.392C352.662 113.392 351.301 113.124 350.036 112.587C348.771 112.012 347.641 111.265 346.644 110.345C345.686 109.387 344.919 108.294 344.344 107.067C343.807 105.802 343.539 104.461 343.539 103.042C343.539 101.586 343.807 100.225 344.344 98.96C344.919 97.695 345.686 96.5833 346.644 95.625C347.641 94.6667 348.771 93.9192 350.036 93.3825C351.301 92.8458 352.662 92.5775 354.119 92.5775C355.614 92.5775 357.013 92.8458 358.316 93.3825C359.658 93.9192 360.827 94.6667 361.824 95.625C362.821 96.5833 363.606 97.695 364.181 98.96C364.756 100.225 365.044 101.586 365.044 103.042ZM392.081 125.812C393.231 124.739 394.419 123.742 395.646 122.822C396.872 121.902 398.176 121.136 399.556 120.522C400.974 119.871 402.488 119.372 404.098 119.027C405.746 118.644 407.529 118.452 409.446 118.452C412.704 118.452 415.579 119.027 418.071 120.177C420.601 121.289 422.728 122.861 424.453 124.892C426.178 126.886 427.481 129.282 428.363 132.08C429.245 134.84 429.686 137.849 429.686 141.107V179H411.861V141.107C411.861 138.194 411.19 135.932 409.848 134.322C408.506 132.674 406.532 131.85 403.926 131.85C401.971 131.85 400.131 132.272 398.406 133.115C396.719 133.92 395.071 135.032 393.461 136.45V179H375.636V119.372H386.676C388.899 119.372 390.356 120.369 391.046 122.362L392.081 125.812ZM463.934 146.052C466.886 146.052 469.013 145.324 470.317 143.867C471.658 142.372 472.329 140.456 472.329 138.117C472.329 135.702 471.658 133.805 470.317 132.425C469.013 131.045 466.886 130.355 463.934 130.355C460.982 130.355 458.836 131.045 457.494 132.425C456.191 133.805 455.539 135.702 455.539 138.117C455.539 139.267 455.692 140.322 455.999 141.28C456.344 142.238 456.862 143.082 457.552 143.81C458.242 144.5 459.104 145.056 460.139 145.477C461.212 145.861 462.477 146.052 463.934 146.052ZM477.734 181.185C477.734 179.767 477.102 178.751 475.837 178.137C474.572 177.486 472.923 177.026 470.892 176.757C468.86 176.489 466.579 176.336 464.049 176.297C461.557 176.221 459.066 176.067 456.574 175.837C455.462 176.604 454.542 177.467 453.814 178.425C453.124 179.345 452.779 180.399 452.779 181.588C452.779 182.431 452.952 183.198 453.297 183.888C453.68 184.578 454.332 185.172 455.252 185.67C456.172 186.168 457.398 186.552 458.932 186.82C460.503 187.127 462.477 187.28 464.854 187.28C467.422 187.28 469.531 187.127 471.179 186.82C472.827 186.513 474.131 186.092 475.089 185.555C476.086 185.018 476.776 184.367 477.159 183.6C477.542 182.872 477.734 182.067 477.734 181.185ZM495.329 121.213V127.71C495.329 128.707 495.042 129.492 494.467 130.067C493.93 130.642 492.991 131.083 491.649 131.39L487.337 132.367C487.567 133.211 487.739 134.073 487.854 134.955C488.007 135.837 488.084 136.757 488.084 137.715C488.084 140.705 487.452 143.388 486.187 145.765C484.96 148.142 483.254 150.173 481.069 151.86C478.922 153.508 476.373 154.792 473.422 155.712C470.47 156.594 467.307 157.035 463.934 157.035C463.014 157.035 462.113 157.016 461.232 156.977C460.35 156.901 459.487 156.786 458.644 156.632C457.341 157.437 456.689 158.338 456.689 159.335C456.689 160.332 457.226 161.06 458.299 161.52C459.372 161.942 460.791 162.248 462.554 162.44C464.317 162.593 466.311 162.708 468.534 162.785C470.796 162.823 473.096 162.957 475.434 163.187C477.772 163.379 480.053 163.724 482.277 164.223C484.538 164.721 486.551 165.526 488.314 166.637C490.077 167.749 491.496 169.244 492.569 171.122C493.642 172.962 494.179 175.32 494.179 178.195C494.179 180.878 493.527 183.504 492.224 186.073C490.921 188.641 489.004 190.922 486.474 192.915C483.944 194.908 480.839 196.499 477.159 197.688C473.479 198.914 469.262 199.528 464.509 199.528C459.832 199.528 455.788 199.087 452.377 198.205C449.003 197.323 446.186 196.154 443.924 194.698C441.701 193.279 440.052 191.631 438.979 189.753C437.906 187.874 437.369 185.919 437.369 183.888C437.369 181.243 438.136 179.038 439.669 177.275C441.202 175.512 443.349 174.093 446.109 173.02C444.652 172.138 443.502 171.007 442.659 169.627C441.816 168.247 441.394 166.465 441.394 164.28C441.394 163.398 441.547 162.478 441.854 161.52C442.161 160.523 442.64 159.565 443.292 158.645C443.982 157.687 444.825 156.786 445.822 155.942C446.818 155.099 448.007 154.352 449.387 153.7C446.282 152.052 443.828 149.886 442.027 147.202C440.225 144.481 439.324 141.318 439.324 137.715C439.324 134.725 439.957 132.042 441.222 129.665C442.487 127.25 444.212 125.218 446.397 123.57C448.62 121.883 451.227 120.599 454.217 119.717C457.207 118.797 460.446 118.337 463.934 118.337C468.994 118.337 473.479 119.296 477.389 121.213H495.329Z" fill="white"/>
</svg>
